<svg xmlns="http://www.w3.org/2000/svg" style="display: none;">
    <symbol id="logo-icon" viewBox="0 0 186 42" fill="none" >
        <circle cx="140" cy="22" r="20" fill="#FFC600" />
        <path
        d="M2 41V23.93m0 0V6.86S22.036 3 22.036 15.53 2 23.93 2 23.93zM30.05 41V23.93m0 0V6.86s18.534-2.574 18.534 8.67c0 11.245-18.533 8.4-18.533 8.4zm0 0 18.534 16.154M95.67 3v37.084h24.213m8.847.916 4.177-10.53m32.317-7.456H146.462m18.761 0v17.07m0-17.07s17.773 2.845 17.773-8.4c0-11.244-17.773-8.67-17.773-8.67v17.07zm0 0L185 40.084m-49.166-17.07-2.928 7.456m2.928-7.456h10.628m-10.628 0h-15.952l13.024 7.456m2.928-7.456 6.839-17.07 3.789 17.07m-13.556 7.456 16.029 7.875-2.473-15.33m-89.996 0s0-17.07 14.786-17.07c14.787 0 14.787 17.07 14.787 17.07s0 17.07-14.787 17.07-14.786-17.07-14.786-17.07z"
        stroke="#000"
        stroke-width="3"
        />
    </symbol>

    <symbol id="telegram-icon" viewBox="0 0 40 40">
        <path d="M20 1.6c10.162 0 18.4 8.238 18.4 18.4 0 10.163-8.238 18.4-18.4 18.4C9.838 38.4 1.6 30.163 1.6 20 1.6 9.838 9.838 1.6 20 1.6zm6.347 25.9c.339-1.038 1.924-11.387 2.12-13.426.06-.618-.136-1.028-.518-1.211-.463-.223-1.147-.112-1.942.175-1.09.393-15.019 6.307-15.824 6.65-.763.323-1.485.677-1.485 1.189 0 .36.214.562.803.773.613.218 2.156.686 3.067.937.878.243 1.877.032 2.437-.316.593-.369 7.444-4.953 7.936-5.354.491-.402.883.113.481.515-.401.402-5.104 4.966-5.724 5.598-.752.767-.218 1.562.287 1.88.577.364 4.725 3.146 5.35 3.593.624.446 1.258.648 1.838.648.58 0 .885-.764 1.174-1.65z"/>
    </symbol>

    <symbol id="whatsapp-icon" viewBox="0 0 40 40">
        <path d="M20 1.6C9.854 1.6 1.6 9.855 1.6 20c0 3.168.818 6.283 2.37 9.032l-2.34 8.352a.8.8 0 0 0 .962.993l8.717-2.16A18.411 18.411 0 0 0 20 38.4c10.146 0 18.4-8.254 18.4-18.4C38.4 9.854 30.146 1.6 20 1.6zm9.256 24.893c-.394 1.09-2.282 2.084-3.189 2.218-.814.119-1.845.17-2.976-.185a27.685 27.685 0 0 1-2.693-.983c-4.738-2.021-7.832-6.732-8.07-7.044-.235-.31-1.928-2.528-1.928-4.824 0-2.295 1.22-3.424 1.654-3.89.433-.468.944-.585 1.26-.585.315 0 .63.004.905.017.29.014.68-.11 1.063.8.394.935 1.339 3.23 1.456 3.465.118.233.196.506.04.817-.157.311-.236.506-.472.779-.237.273-.496.608-.71.817-.236.233-.482.485-.206.952.275.467 1.223 1.995 2.628 3.231 1.804 1.59 3.326 2.082 3.798 2.316.472.233.748.194 1.023-.117.275-.312 1.181-1.363 1.495-1.829.315-.466.63-.39 1.064-.233.433.155 2.756 1.283 3.228 1.516.472.234.787.35.905.545.119.194.119 1.128-.275 2.217z"/>
    </symbol>

    <symbol viewBox="0 0 40 40" id="sidebar-icon">
        <path d="M0 20H40M0 32H20H40M0 8H20H40" stroke="black" stroke-width="4"/>
    </symbol>
</svg>